:FULLY-SPECIFIED
:FORCE-ALL-JOINTS-BE-3DOF
:DEGREES
1019
root 1.1463 15.1598 32.4504 4.88552 -3.55071 363.593
lfemur 8.49409 0.585535 5.70155
ltibia 1.79035e-14 0 0
lfoot -30.1504 -11.0677 0
ltoes -34.3719 0 0
rfemur -31.6648 -15.9009 -6.03451
rtibia 50.2376 0 0
rfoot -22.3722 4.82318 0
rtoes -42.4147 0 0
lowerback -1.45656 -0.159478 0.277703
upperback -0.552939 -0.20104 -5.93551
thorax 0.225874 -0.108312 -6.31421
lowerneck -7.15367 0.93856 6.24942
upperneck 1.6295 0.566882 3.50877
head 1.7355 0.417644 0.0654605
lclavicle 1.59028e-15 -1.53899e-15 0
lhumerus -58.6436 -46.3883 115.298
lradius 55.6586 0 0
lwrist 25.266 0 0
lhand 37.2603 24.9112 0
lfingers 7.12502 0 0
lthumb 60.0879 38.5989 0
rclavicle 1.59028e-15 -1.53899e-15 0
rhumerus 2.88386 -23.9191 0.170116
rradius 27.6742 0 0
rwrist -10.2918 0 0
rhand -30.7875 -42.9207 0
rfingers 7.12502 0 0
rthumb -4.07799 -792.862 0
1020
root 1.14684 15.1598 32.4503 4.87628 -3.51681 363.577
lfemur 8.487 0.552005 5.7194
ltibia 1.71853e-14 0 0
lfoot -30.1504 -11.0517 0
ltoes -34.3859 0 0
rfemur -31.6337 -15.9078 -6.02755
rtibia 50.2322 0 0
rfoot -22.3541 4.82948 0
rtoes -42.3976 0 0
lowerback -1.45876 -0.152834 0.265597
upperback -0.547566 -0.191587 -5.9402
thorax 0.233756 -0.103302 -6.31212
lowerneck -7.16614 0.92929 6.26408
upperneck 1.64294 0.55152 3.51137
head 1.74201 0.41076 0.0633482
lclavicle 1.2921e-15 -2.82147e-15 0
lhumerus -58.6509 -46.4168 115.3
lradius 55.681 0 0
lwrist 25.2664 0 0
lhand 37.2605 24.9309 0
lfingers 7.12502 0 0
lthumb 60.088 38.6184 0
rclavicle 1.2921e-15 -2.82147e-15 0
rhumerus 2.85075 -23.9021 0.18771
rradius 27.6646 0 0
rwrist -10.263 0 0
rhand -30.7689 -42.8785 0
rfingers 7.12502 0 0
rthumb -4.06002 -792.82 0
1021
root 1.14738 15.1597 32.4503 4.86704 -3.48292 363.561
lfemur 8.47991 0.518475 5.73724
ltibia 1.64671e-14 0 0
lfoot -30.1504 -11.0357 0
ltoes -34.3999 0 0
rfemur -31.6027 -15.9146 -6.02058
rtibia 50.2267 0 0
rfoot -22.3361 4.83579 0
rtoes -42.3805 0 0
lowerback -1.46095 -0.146191 0.253491
upperback -0.542193 -0.182135 -5.9449
thorax 0.241639 -0.0982917 -6.31003
lowerneck -7.17861 0.920019 6.27874
upperneck 1.65638 0.536157 3.51397
head 1.74851 0.403875 0.0612358
lclavicle 9.93923e-16 -4.10395e-15 0
lhumerus -58.6581 -46.4453 115.302
lradius 55.7034 0 0
lwrist 25.2668 0 0
lhand 37.2607 24.9507 0
lfingers 7.12502 0 0
lthumb 60.0882 38.638 0
rclavicle 9.93923e-16 -4.10395e-15 0
rhumerus 2.81764 -23.885 0.205305
rradius 27.6551 0 0
rwrist -10.2341 0 0
rhand -30.7503 -42.8362 0
rfingers 7.12502 0 0
rthumb -4.04206 -792.778 0
1022
root 1.14793 15.1597 32.4502 4.8578 -3.44902 363.544
lfemur 8.47282 0.484944 5.75508
ltibia 1.57489e-14 0 0
lfoot -30.1505 -11.0197 0
ltoes -34.4139 0 0
rfemur -31.5716 -15.9215 -6.01361
rtibia 50.2213 0 0
rfoot -22.318 4.84209 0
rtoes -42.3634 0 0
lowerback -1.46315 -0.139548 0.241385
upperback -0.53682 -0.172682 -5.94959
thorax 0.249521 -0.0932813 -6.30795
lowerneck -7.19108 0.910749 6.29341
upperneck 1.66983 0.520795 3.51657
head 1.75501 0.396991 0.0591234
lclavicle 6.95746e-16 -5.38643e-15 0
lhumerus -58.6654 -46.4738 115.305
lradius 55.7259 0 0
lwrist 25.2672 0 0
lhand 37.2609 24.9704 0
lfingers 7.12502 0 0
lthumb 60.0884 38.6575 0
rclavicle 6.95746e-16 -5.38643e-15 0
rhumerus 2.78453 -23.868 0.222899
rradius 27.6455 0 0
rwrist -10.2053 0 0
rhand -30.7317 -42.7939 0
rfingers 7.12502 0 0
rthumb -4.02409 -792.736 0
1023
root 1.14847 15.1597 32.4501 4.84856 -3.41513 363.528
lfemur 8.46573 0.451414 5.77293
ltibia 1.50307e-14 0 0
lfoot -30.1505 -11.0038 0
ltoes -34.4278 0 0
rfemur -31.5406 -15.9283 -6.00665
rtibia 50.2158 0 0
rfoot -22.3 4.84839 0
rtoes -42.3463 0 0
lowerback -1.46534 -0.132904 0.229278
upperback -0.531446 -0.16323 -5.95429
thorax 0.257404 -0.088271 -6.30586
lowerneck -7.20355 0.901478 6.30807
upperneck 1.68327 0.505432 3.51918
head 1.76152 0.390106 0.0570111
lclavicle 3.97569e-16 -6.66891e-15 0
lhumerus -58.6727 -46.5023 115.307
lradius 55.7483 0 0
lwrist 25.2676 0 0
lhand 37.2611 24.9901 0
lfingers 7.12502 0 0
lthumb 60.0885 38.6771 0
rclavicle 3.97569e-16 -6.66891e-15 0
rhumerus 2.75143 -23.851 0.240494
rradius 27.636 0 0
rwrist -10.1764 0 0
rhand -30.7131 -42.7517 0
rfingers 7.12502 0 0
rthumb -4.00612 -792.694 0
1024
root 1.14901 15.1597 32.45 4.83932 -3.38123 363.512
lfemur 8.45864 0.417884 5.79077
ltibia 1.43125e-14 0 0
lfoot -30.1505 -10.9878 0
ltoes -34.4418 0 0
rfemur -31.5095 -15.9352 -5.99968
rtibia 50.2104 0 0
rfoot -22.2819 4.85469 0
rtoes -42.3292 0 0
lowerback -1.46754 -0.126261 0.217172
upperback -0.526073 -0.153777 -5.95898
thorax 0.265286 -0.0832606 -6.30377
lowerneck -7.21602 0.892208 6.32273
upperneck 1.69671 0.49007 3.52178
head 1.76802 0.383222 0.0548987
lclavicle 9.93923e-17 -7.95139e-15 0
lhumerus -58.68 -46.5308 115.309
lradius 55.7707 0 0
lwrist 25.268 0 0
lhand 37.2613 25.0098 0
lfingers 7.12502 0 0
lthumb 60.0887 38.6966 0
rclavicle 9.93923e-17 -7.95139e-15 0
rhumerus 2.71832 -23.834 0.258088
rradius 27.6264 0 0
rwrist -10.1476 0 0
rhand -30.6945 -42.7094 0
rfingers 7.12502 0 0
rthumb -3.98815 -792.652 0
1025
root 1.15095 15.1597 32.4536 4.84112 -3.38036 363.509
lfemur 8.47002 0.418182 5.78783
ltibia 1.28761e-14 0 0
lfoot -30.1587 -10.993 0
ltoes -34.437 0 0
rfemur -31.4919 -15.9249 -6.00933
rtibia 50.2029 0 0
rfoot -22.2678 4.87098 0
rtoes -42.2836 0 0
lowerback -1.48031 -0.124075 0.202302
upperback -0.524539 -0.150066 -5.96142
thorax 0.274467 -0.0812392 -6.2978
lowerneck -7.2105 0.886247 6.32874
upperneck 1.68511 0.482442 3.52833
head 1.76313 0.379142 0.0556546
lclavicle 1.66723e-16 -6.87411e-15 0
lhumerus -58.6817 -46.5441 115.313
lradius 55.7722 0 0
lwrist 25.2786 0 0
lhand 37.268 25.0194 0
lfingers 7.12502 0 0
lthumb 60.0944 38.7002 0
rclavicle 1.66723e-16 -6.87411e-15 0
rhumerus 2.69707 -23.8224 0.270612
rradius 27.6216 0 0
rwrist -10.1314 0 0
rhand -30.6882 -42.6849 0
rfingers 7.12502 0 0
rthumb -3.98209 -792.628 0
1026
root 1.15288 15.1598 32.4572 4.84293 -3.3795 363.506
lfemur 8.48139 0.418479 5.78489
ltibia 1.14397e-14 0 0
lfoot -30.1668 -10.9981 0
ltoes -34.4322 0 0
rfemur -31.4743 -15.9147 -6.01898
rtibia 50.1954 0 0
rfoot -22.2536 4.88726 0
rtoes -42.238 0 0
lowerback -1.49309 -0.12189 0.187431
upperback -0.523006 -0.146354 -5.96386
thorax 0.283648 -0.0792178 -6.29182
lowerneck -7.20499 0.880287 6.33475
upperneck 1.67352 0.474813 3.53489
head 1.75824 0.375062 0.0564105
lclavicle 2.34053e-16 -5.79682e-15 0
lhumerus -58.6834 -46.5575 115.317
lradius 55.7737 0 0
lwrist 25.2892 0 0
lhand 37.2746 25.029 0
lfingers 7.12502 0 0
lthumb 60.1001 38.7037 0
rclavicle 2.34053e-16 -5.79682e-15 0
rhumerus 2.67582 -23.8107 0.283137
rradius 27.6169 0 0
rwrist -10.1152 0 0
rhand -30.682 -42.6604 0
rfingers 7.12502 0 0
rthumb -3.97603 -792.603 0
1027
root 1.15482 15.1598 32.4608 4.84473 -3.37863 363.502
lfemur 8.49277 0.418777 5.78195
ltibia 1.00034e-14 0 0
lfoot -30.175 -11.0033 0
ltoes -34.4274 0 0
rfemur -31.4567 -15.9044 -6.02863
rtibia 50.1879 0 0
rfoot -22.2395 4.90355 0
rtoes -42.1924 0 0
lowerback -1.50586 -0.119704 0.172561
upperback -0.521472 -0.142643 -5.96631
thorax 0.292828 -0.0771964 -6.28585
lowerneck -7.19947 0.874326 6.34076
upperneck 1.66192 0.467185 3.54144
head 1.75335 0.370981 0.0571665
lclavicle 3.01383e-16 -4.71954e-15 0
lhumerus -58.6851 -46.5708 115.322
lradius 55.7751 0 0
lwrist 25.2998 0 0
lhand 37.2813 25.0386 0
lfingers 7.12502 0 0
lthumb 60.1057 38.7073 0
rclavicle 3.01383e-16 -4.71954e-15 0
rhumerus 2.65457 -23.7991 0.295661
rradius 27.6121 0 0
rwrist -10.0989 0 0
rhand -30.6757 -42.6359 0
rfingers 7.12502 0 0
rthumb -3.96997 -792.579 0
